<svg xmlns="http://www.w3.org/2000/svg" viewBox="0 0 64 64">
  <defs>
    <linearGradient id="g" x1="0" x2="1" y1="0" y2="1">
      <stop offset="0%" stop-color="#22d3ee" />
      <stop offset="100%" stop-color="#0891b2" />
    </linearGradient>
  </defs>
  <rect x="4" y="4" width="56" height="56" rx="14" fill="#020617" />
  <path d="M18 22h18c4.4 0 8 3.6 8 8v13c0 1.7-1.3 3-3 3h-2c-1.7 0-3-1.3-3-3v-5H24v5c0 1.7-1.3 3-3 3h-2c-1.7 0-3-1.3-3-3V25c0-1.7 1.3-3 3-3z" fill="url(#g)"/>
  <circle cx="26" cy="44" r="2.6" fill="#bae6fd"/>
  <circle cx="34" cy="44" r="2.6" fill="#bae6fd"/>
  <path d="M43 26h5v6h-5" fill="none" stroke="#67e8f9" stroke-width="3" stroke-linecap="round" stroke-linejoin="round"/>
  <circle cx="48" cy="35" r="2.2" fill="#67e8f9"/>
</svg>

